<?xml version="1.0" standalone="yes"?>
<svg xmlns="http://www.w3.org/2000/svg" width="130" height="130">
<path style="fill:#010101; stroke:none;" d="M0 0L0 130L130 130L130 0L0 0z"/>
<path style="fill:#303030; stroke:none;" d="M63 36L64 37L63 36z"/>
<path style="fill:#5e5e5e; stroke:none;" d="M64 36L65 37L64 36z"/>
<path style="fill:#a3a3a3; stroke:none;" d="M65 36L65 37L72 37L65 36z"/>
<path style="fill:#5e5e5e; stroke:none;" d="M72.6667 36.3333L73.3333 36.6667L72.6667 36.3333z"/>
<path style="fill:#303030; stroke:none;" d="M74 36L75 37L74 36M59 37L60 38L59 37z"/>
<path style="fill:#5e5e5e; stroke:none;" d="M60 37L61 38L60 37z"/>
<path style="fill:#a3a3a3; stroke:none;" d="M61 37L62 38L61 37z"/>
<path style="fill:#fafafa; stroke:none;" d="M53 41L53 42C58.3094 40.273 63.315 38.5019 69 39.1844C94.3352 42.2258 99.2076 75.6601 77.9992 87.7901C69.6329 92.5752 61.6058 90.7993 53 88C64.1697 98.8039 84.3221 92.2832 92.3619 81C101.544 68.1134 96.9522 49.3107 84 40.9691C79.345 37.9712 74.4471 37.0015 69 37.0015C63.1577 37.0015 58.1632 38.2793 53 41z"/>
<path style="fill:#a3a3a3; stroke:none;" d="M76 37L77 38L76 37z"/>
<path style="fill:#5e5e5e; stroke:none;" d="M77 37L78 38L77 37M57 38L58 39L57 38z"/>
<path style="fill:#a3a3a3; stroke:none;" d="M58 38L59 39L58 38M79 38L80 39L79 38z"/>
<path style="fill:#303030; stroke:none;" d="M80 38L81 39L80 38z"/>
<path style="fill:#5e5e5e; stroke:none;" d="M55 39L56 40L55 39z"/>
<path style="fill:#a3a3a3; stroke:none;" d="M60 39L61 40L60 39z"/>
<path style="fill:#5e5e5e; stroke:none;" d="M61.6667 39.3333L62.3333 39.6667L61.6667 39.3333z"/>
<path style="fill:#303030; stroke:none;" d="M63 39L64 40L63 39M67.6667 39.3333L68.3333 39.6667L67.6667 39.3333z"/>
<path style="fill:#5e5e5e; stroke:none;" d="M69.6667 39.3333L70.3333 39.6667L69.6667 39.3333z"/>
<path style="fill:#a3a3a3; stroke:none;" d="M71 39L72 40L71 39M81 39L82 40L81 39z"/>
<path style="fill:#303030; stroke:none;" d="M82 39L83 40L82 39M53 40L54 41L53 40z"/>
<path style="fill:#5e5e5e; stroke:none;" d="M57 40L58 41L57 40z"/>
<path style="fill:#303030; stroke:none;" d="M58 40L59 41L58 40M73 40L74 41L73 40z"/>
<path style="fill:#5e5e5e; stroke:none;" d="M74 40L75 41L74 40z"/>
<path style="fill:#a3a3a3; stroke:none;" d="M83 40L84 41L83 40M52.3333 41.6667L52.6667 42.3333L52.3333 41.6667M54 41L55 42L54 41z"/>
<path style="fill:#303030; stroke:none;" d="M55 41L56 42L55 41z"/>
<path style="fill:#5e5e5e; stroke:none;" d="M76 41L77 42L76 41z"/>
<path style="fill:#a3a3a3; stroke:none;" d="M77 41L78 42L77 41z"/>
<path style="fill:#5e5e5e; stroke:none;" d="M85 41L86 42L85 41z"/>
<path style="fill:#303030; stroke:none;" d="M50 42L46 47L51 45L50 42z"/>
<path style="fill:#fafafa; stroke:none;" d="M51 42L50 44L51 42z"/>
<path style="fill:#303030; stroke:none;" d="M53 42L54 43L53 42z"/>
<path style="fill:#5e5e5e; stroke:none;" d="M78 42L79 43L78 42z"/>
<path style="fill:#a3a3a3; stroke:none;" d="M86 42L87 43L86 42z"/>
<path style="fill:#5e5e5e; stroke:none;" d="M51 43L52 44L51 43z"/>
<path style="fill:#a3a3a3; stroke:none;" d="M80 43L81 44L80 43M87 43L88 44L87 43z"/>
<path style="fill:#fafafa; stroke:none;" d="M49 44L50 45L49 44z"/>
<path style="fill:#303030; stroke:none;" d="M81 44L82 45L81 44z"/>
<path style="fill:#a3a3a3; stroke:none;" d="M88 44L89 45L88 44M48 45L49 46L48 45z"/>
<path style="fill:#303030; stroke:none;" d="M82 45L83 46L82 45z"/>
<path style="fill:#a3a3a3; stroke:none;" d="M89 45L90 46L89 45M47 46L48 47L47 46M84 46L85 47L84 46M90 46L91 47L90 46M46 47L47 48L46 47z"/>
<path style="fill:#5e5e5e; stroke:none;" d="M91 47L92 48L91 47M45 48L44 51L45 51L45 48z"/>
<path style="fill:#303030; stroke:none;" d="M85 48L86 49L85 48M92 48L93 49L92 48M45 49L46 50L45 49M86 49L87 50L86 49z"/>
<path style="fill:#a3a3a3; stroke:none;" d="M87 50L88 51L87 50M93 50L94 51L93 50z"/>
<path style="fill:#5e5e5e; stroke:none;" d="M43 51L44 52L43 51z"/>
<path style="fill:#303030; stroke:none;" d="M94 51L95 52L94 51M43 52L44 53L43 52z"/>
<path style="fill:#5e5e5e; stroke:none;" d="M88 52L89 53L88 52z"/>
<path style="fill:#a3a3a3; stroke:none;" d="M94 52L95 53L94 52z"/>
<path style="fill:#303030; stroke:none;" d="M42 53L43 54L42 53z"/>
<path style="fill:#a3a3a3; stroke:none;" d="M89 53L90 54L89 53z"/>
<path style="fill:#5e5e5e; stroke:none;" d="M89 54L90 55L89 54M95 54L96 55L95 54z"/>
<path style="fill:#a3a3a3; stroke:none;" d="M90 56L91 57L90 56z"/>
<path style="fill:#303030; stroke:none;" d="M96 56L97 57L96 56M35 57L34 59L35 57z"/>
<path style="fill:#5e5e5e; stroke:none;" d="M36 57L36 58L45 58L36 57z"/>
<path style="fill:#303030; stroke:none;" d="M45.6667 57.3333L46.3333 57.6667L45.6667 57.3333M54 57L55 58L54 57z"/>
<path style="fill:#5e5e5e; stroke:none;" d="M54 72L55 72L55 58L59 58C52.0466 55.7214 54 67.9125 54 72z"/>
<path style="fill:#303030; stroke:none;" d="M67 57L68 58L67 57z"/>
<path style="fill:#5e5e5e; stroke:none;" d="M68 57L68 58L71 58L68 57z"/>
<path style="fill:#303030; stroke:none;" d="M71 57L72 58L71 57M84 57L85 58L84 57z"/>
<path style="fill:#5e5e5e; stroke:none;" d="M84 67L85 67L85 58L89 58C83.3276 56.1412 84.0029 63.1852 84 67z"/>
<path style="fill:#303030; stroke:none;" d="M90 57L91 58L90 57z"/>
<path style="fill:#5e5e5e; stroke:none;" d="M96 57L97 58L96 57z"/>
<path style="fill:#fafafa; stroke:none;" d="M34 61L48 62L48 64L33 65L33 72L37 72L37 68L52 72C50.4892 68.4036 52.2765 64.4079 50.7137 61.2284C48.1803 56.0739 36.6935 56.8452 34 61z"/>
<path style="fill:#a3a3a3; stroke:none;" d="M48 58L49 59L48 58z"/>
<path style="fill:#303030; stroke:none;" d="M49 58L50 59L49 58z"/>
<path style="fill:#fafafa; stroke:none;" d="M55 58L55 72L59 72L59 67L68 67L68 72L71 72L71 58L68 58L68 63L59 63L59 58L55 58z"/>
<path style="fill:#a3a3a3; stroke:none;" d="M67 58L67 63L68 63L67 58M71 58L71 72L72 72L71 58z"/>
<path style="fill:#fafafa; stroke:none;" d="M85 58C84.9705 66.3424 82.3424 68.9705 74 69L74 72C85.4771 71.9987 88.9987 69.7008 89 58L85 58z"/>
<path style="fill:#a3a3a3; stroke:none;" d="M96 58L97 59L96 58z"/>
<path style="fill:#5e5e5e; stroke:none;" d="M50 59L51 60L50 59z"/>
<path style="fill:#a3a3a3; stroke:none;" d="M91 59L92 60L91 59M33 60L34 61L33 60z"/>
<path style="fill:#303030; stroke:none;" d="M51 60L52 61L51 60z"/>
<path style="fill:#5e5e5e; stroke:none;" d="M91.3333 60.6667L91.6667 61.3333L91.3333 60.6667z"/>
<path style="fill:#303030; stroke:none;" d="M32 61L33 62L32 61z"/>
<path style="fill:#5e5e5e; stroke:none;" d="M33 61L33 62L45 62L33 61z"/>
<path style="fill:#a3a3a3; stroke:none;" d="M45.6667 61.3333L46.3333 61.6667L45.6667 61.3333M51 61L52 62L51 61z"/>
<path style="fill:#303030; stroke:none;" d="M97 61L98 62L97 61z"/>
<path style="fill:#a3a3a3; stroke:none;" d="M47.3333 62.6667L47.6667 63.3333L47.3333 62.6667z"/>
<path style="fill:#303030; stroke:none;" d="M91 62L91 68L92 68L91 62z"/>
<path style="fill:#5e5e5e; stroke:none;" d="M97 62L97 68L98 68L97 62z"/>
<path style="fill:#303030; stroke:none;" d="M33 64L33 65L46 65L33 64z"/>
<path style="fill:#a3a3a3; stroke:none;" d="M46 64L47 65L46 64M51 64L52 65L51 64z"/>
<path style="fill:#5e5e5e; stroke:none;" d="M32 65L32 72L33 72L32 65M51 65L52 66L51 65z"/>
<path style="fill:#a3a3a3; stroke:none;" d="M50 66L51 67L50 66z"/>
<path style="fill:#5e5e5e; stroke:none;" d="M49 67L50 68L49 67z"/>
<path style="fill:#a3a3a3; stroke:none;" d="M67 67L67 72L68 72L67 67z"/>
<path style="fill:#303030; stroke:none;" d="M83 67L84 68L83 67z"/>
<path style="fill:#a3a3a3; stroke:none;" d="M37 68L37 69L43 69L37 68z"/>
<path style="fill:#303030; stroke:none;" d="M49 68L50 69L49 68z"/>
<path style="fill:#5e5e5e; stroke:none;" d="M74 68L74 69L80 69L74 68z"/>
<path style="fill:#a3a3a3; stroke:none;" d="M80 68L80 69L83 69L80 68z"/>
<path style="fill:#5e5e5e; stroke:none;" d="M88 68L89 69L88 68M91.3333 68.6667L91.6667 69.3333L91.3333 68.6667z"/>
<path style="fill:#303030; stroke:none;" d="M97 68L98 69L97 68M43 69L44 70L43 69z"/>
<path style="fill:#5e5e5e; stroke:none;" d="M50 69L51 70L50 69z"/>
<path style="fill:#303030; stroke:none;" d="M73 69L73 72L74 72L73 69M44 70L45 71L44 70z"/>
<path style="fill:#a3a3a3; stroke:none;" d="M45 70L46 71L45 70z"/>
<path style="fill:#5e5e5e; stroke:none;" d="M51 70L52 71L51 70z"/>
<path style="fill:#a3a3a3; stroke:none;" d="M86 70L87 71L86 70z"/>
<path style="fill:#303030; stroke:none;" d="M87 70L88 71L87 70z"/>
<path style="fill:#a3a3a3; stroke:none;" d="M91 70L92 71L91 70M46 71L47 72L46 71M52 71L53 72L52 71M84 71L85 72L84 71z"/>
<path style="fill:#5e5e5e; stroke:none;" d="M85 71L86 72L85 71z"/>
<path style="fill:#a3a3a3; stroke:none;" d="M96 71L97 72L96 71z"/>
<path style="fill:#303030; stroke:none;" d="M32 72L32 73L37 73L32 72M47 72L47 73L59 73L47 72M67 72L67 73L72 73L67 72M74 72L74 73L83 73L74 72M90 72L91 73L90 72z"/>
<path style="fill:#5e5e5e; stroke:none;" d="M96 72L97 73L96 72z"/>
<path style="fill:#a3a3a3; stroke:none;" d="M90 73L91 74L90 73z"/>
<path style="fill:#303030; stroke:none;" d="M96 73L97 74L96 73z"/>
<path style="fill:#5e5e5e; stroke:none;" d="M89 75L90 76L89 75M95 75L96 76L95 75z"/>
<path style="fill:#303030; stroke:none;" d="M42 76L43 77L42 76z"/>
<path style="fill:#a3a3a3; stroke:none;" d="M89 76L90 77L89 76z"/>
<path style="fill:#303030; stroke:none;" d="M43 77L44 78L43 77z"/>
<path style="fill:#5e5e5e; stroke:none;" d="M88 77L89 78L88 77z"/>
<path style="fill:#a3a3a3; stroke:none;" d="M94 77L95 78L94 77z"/>
<path style="fill:#5e5e5e; stroke:none;" d="M43 78L44 79L43 78z"/>
<path style="fill:#303030; stroke:none;" d="M94 78L95 79L94 78z"/>
<path style="fill:#5e5e5e; stroke:none;" d="M44 79L46 82L44 79z"/>
<path style="fill:#a3a3a3; stroke:none;" d="M87 79L88 80L87 79M93 79L94 80L93 79z"/>
<path style="fill:#303030; stroke:none;" d="M45 80L46 81L45 80M86 80L87 81L86 80M85 81L86 82L85 81M92 81L93 82L92 81z"/>
<path style="fill:#a3a3a3; stroke:none;" d="M46 82L50 86L46 82z"/>
<path style="fill:#5e5e5e; stroke:none;" d="M91 82L92 83L91 82z"/>
<path style="fill:#303030; stroke:none;" d="M46 83L47 84L46 83z"/>
<path style="fill:#a3a3a3; stroke:none;" d="M84 83L85 84L84 83M90 83L91 84L90 83z"/>
<path style="fill:#303030; stroke:none;" d="M47 84L48 85L47 84M82 84L83 85L82 84z"/>
<path style="fill:#a3a3a3; stroke:none;" d="M89 84L90 85L89 84z"/>
<path style="fill:#303030; stroke:none;" d="M48 85L49 86L48 85M50 85L50 88L51 88L50 85M81 85L82 86L81 85z"/>
<path style="fill:#a3a3a3; stroke:none;" d="M88 85L89 86L88 85z"/>
<path style="fill:#fafafa; stroke:none;" d="M50 86L52 88L50 86z"/>
<path style="fill:#5e5e5e; stroke:none;" d="M51 86L52 87L51 86z"/>
<path style="fill:#a3a3a3; stroke:none;" d="M80 86L81 87L80 86M87 86L88 87L87 86M52.3333 87.6667L52.6667 88.3333L52.3333 87.6667z"/>
<path style="fill:#303030; stroke:none;" d="M53 87L54 88L53 87z"/>
<path style="fill:#5e5e5e; stroke:none;" d="M78 87L79 88L78 87z"/>
<path style="fill:#a3a3a3; stroke:none;" d="M86 87L87 88L86 87M54 88L55 89L54 88z"/>
<path style="fill:#303030; stroke:none;" d="M55 88L56 89L55 88z"/>
<path style="fill:#5e5e5e; stroke:none;" d="M76 88L77 89L76 88z"/>
<path style="fill:#a3a3a3; stroke:none;" d="M77 88L78 89L77 88z"/>
<path style="fill:#5e5e5e; stroke:none;" d="M85 88L86 89L85 88z"/>
<path style="fill:#303030; stroke:none;" d="M53 89L54 90L53 89z"/>
<path style="fill:#5e5e5e; stroke:none;" d="M57 89L58 90L57 89z"/>
<path style="fill:#303030; stroke:none;" d="M58 89L59 90L58 89M73 89L74 90L73 89z"/>
<path style="fill:#5e5e5e; stroke:none;" d="M74 89L75 90L74 89z"/>
<path style="fill:#a3a3a3; stroke:none;" d="M83 89L84 90L83 89z"/>
<path style="fill:#5e5e5e; stroke:none;" d="M55 90L56 91L55 90z"/>
<path style="fill:#a3a3a3; stroke:none;" d="M60 90L61 91L60 90z"/>
<path style="fill:#5e5e5e; stroke:none;" d="M61.6667 90.3333L62.3333 90.6667L61.6667 90.3333z"/>
<path style="fill:#303030; stroke:none;" d="M63.6667 90.3333L64.3333 90.6667L63.6667 90.3333M67.6667 90.3333L68.3333 90.6667L67.6667 90.3333z"/>
<path style="fill:#5e5e5e; stroke:none;" d="M69.6667 90.3333L70.3333 90.6667L69.6667 90.3333z"/>
<path style="fill:#a3a3a3; stroke:none;" d="M71 90L72 91L71 90M81 90L82 91L81 90z"/>
<path style="fill:#303030; stroke:none;" d="M82 90L83 91L82 90z"/>
<path style="fill:#5e5e5e; stroke:none;" d="M57 91L58 92L57 91z"/>
<path style="fill:#a3a3a3; stroke:none;" d="M58 91L59 92L58 91M79 91L80 92L79 91z"/>
<path style="fill:#303030; stroke:none;" d="M80 91L81 92L80 91M59 92L60 93L59 92z"/>
<path style="fill:#5e5e5e; stroke:none;" d="M60 92L61 93L60 92z"/>
<path style="fill:#a3a3a3; stroke:none;" d="M61 92L62 93L61 92M76 92L77 93L76 92z"/>
<path style="fill:#5e5e5e; stroke:none;" d="M77 92L78 93L77 92z"/>
<path style="fill:#303030; stroke:none;" d="M63 93L64 94L63 93z"/>
<path style="fill:#5e5e5e; stroke:none;" d="M64 93L65 94L64 93z"/>
<path style="fill:#a3a3a3; stroke:none;" d="M65 93L65 94L72 94L65 93z"/>
<path style="fill:#5e5e5e; stroke:none;" d="M72.6667 93.3333L73.3333 93.6667L72.6667 93.3333z"/>
<path style="fill:#303030; stroke:none;" d="M74 93L75 94L74 93z"/>
</svg>
