<?xml version="1.0" standalone="yes"?>
<svg xmlns="http://www.w3.org/2000/svg" width="50" height="50">
<path style="fill:#16191b; stroke:none;" d="M0 0L0 50L50 50L50 0L0 0z"/>
<path style="fill:#353638; stroke:none;" d="M22 5L22 6L27 6L22 5M19 6L16 10L19 6z"/>
<path style="fill:#626365; stroke:none;" d="M20 6L21 7L20 6z"/>
<path style="fill:#a7a8a9; stroke:none;" d="M21 6L22 7L21 6z"/>
<path style="fill:#fbfbfb; stroke:none;" d="M20 9L28 8L28 9C23.6883 9.56633 17.7808 9.19056 14.1088 11.7423C8.15932 15.8767 4.37697 36.7433 9.7284 42.2971C14.1659 46.9023 26.1953 45.3859 32 44.9066C48.353 43.5564 42.6626 11.5226 29 10C28.4305 5.28344 22.2512 5.28656 20 9z"/>
<path style="fill:#a7a8a9; stroke:none;" d="M26.6667 6.33333L27.3333 6.66667L26.6667 6.33333z"/>
<path style="fill:#626365; stroke:none;" d="M28 6L29 7L28 6z"/>
<path style="fill:#353638; stroke:none;" d="M29 6L31 8L29 6z"/>
<path style="fill:#a7a8a9; stroke:none;" d="M19 7L18 10L24 10L24 9L19 7M29 7L30 8L29 7z"/>
<path style="fill:#353638; stroke:none;" d="M5 8L6 9L5 8z"/>
<path style="fill:#626365; stroke:none;" d="M6 8L7 9L6 8z"/>
<path style="fill:#a7a8a9; stroke:none;" d="M7 8L7 9L11 9L7 8z"/>
<path style="fill:#353638; stroke:none;" d="M11 8L12 9L11 8z"/>
<path style="fill:#626365; stroke:none;" d="M18 8L19 9L18 8M22.6667 8.33333L23.3333 8.66667L22.6667 8.33333z"/>
<path style="fill:#353638; stroke:none;" d="M24 8L25 9L24 8z"/>
<path style="fill:#626365; stroke:none;" d="M25.6667 8.33333L26.3333 8.66667L25.6667 8.33333z"/>
<path style="fill:#a7a8a9; stroke:none;" d="M27 8L28 9L27 8z"/>
<path style="fill:#626365; stroke:none;" d="M30 8L32 10L30 8M37 8L36 11L37 11L37 8z"/>
<path style="fill:#a7a8a9; stroke:none;" d="M38 8L38 9L42 9L38 8z"/>
<path style="fill:#626365; stroke:none;" d="M42 8L43 9L42 8z"/>
<path style="fill:#353638; stroke:none;" d="M43 8L44 9L43 8z"/>
<path style="fill:#a7a8a9; stroke:none;" d="M4 9L7 13L4 9z"/>
<path style="fill:#fbfbfb; stroke:none;" d="M5 9L8 15L12 9L5 9z"/>
<path style="fill:#626365; stroke:none;" d="M12 9L10 13L12 9M17 9L18 10L17 9z"/>
<path style="fill:#a7a8a9; stroke:none;" d="M25.6667 9.33333L26.3333 9.66667L25.6667 9.33333M29.6667 9.33333L30.3333 9.66667L29.6667 9.33333z"/>
<path style="fill:#353638; stroke:none;" d="M32.6667 9.33333L33.3333 9.66667L32.6667 9.33333z"/>
<path style="fill:#fbfbfb; stroke:none;" d="M37 9L41 15L44 9L37 9z"/>
<path style="fill:#a7a8a9; stroke:none;" d="M44 9L42 13L44 9z"/>
<path style="fill:#353638; stroke:none;" d="M45 9L46 10L45 9M3 10L6 13L3 10M13 10L10 14L13 10z"/>
<path style="fill:#626365; stroke:none;" d="M14 10L15 11L14 10z"/>
<path style="fill:#a7a8a9; stroke:none;" d="M15 10L16 11L15 10M33 10L34 11L33 10z"/>
<path style="fill:#626365; stroke:none;" d="M34 10L35 11L34 10z"/>
<path style="fill:#353638; stroke:none;" d="M35 10L38 12L38 11L35 10z"/>
<path style="fill:#626365; stroke:none;" d="M45 10L44 13L47 11L45 10M2 11L2 12L6 16L7 16L8 14L2 11z"/>
<path style="fill:#a7a8a9; stroke:none;" d="M13 11L14 12L13 11M35 11L36 12L35 11z"/>
<path style="fill:#353638; stroke:none;" d="M44 11L45 12L44 11z"/>
<path style="fill:#a7a8a9; stroke:none;" d="M2 12L2 15L3 15L2 12z"/>
<path style="fill:#fbfbfb; stroke:none;" d="M3 12L5 27L6 27C7.07561 21.2029 7.41201 16.421 3 12z"/>
<path style="fill:#a7a8a9; stroke:none;" d="M12 12L13 13L12 12M36 12L38 14L36 12z"/>
<path style="fill:#626365; stroke:none;" d="M37.6667 12.3333L38.3333 12.6667L37.6667 12.3333z"/>
<path style="fill:#353638; stroke:none;" d="M43 12L39 15L42 17L43 12z"/>
<path style="fill:#fbfbfb; stroke:none;" d="M45 12C42.091 17.1932 41.9302 21.2342 43 27L44 27L45 12z"/>
<path style="fill:#a7a8a9; stroke:none;" d="M46 12L46 16L47 16L46 12M9 13L10 14L9 13M11 13L12 14L11 13z"/>
<path style="fill:#353638; stroke:none;" d="M38 13L39 14L38 13z"/>
<path style="fill:#a7a8a9; stroke:none;" d="M39 13L40 14L39 13z"/>
<path style="fill:#626365; stroke:none;" d="M42 13L43 14L42 13z"/>
<path style="fill:#a7a8a9; stroke:none;" d="M5 14L6 15L5 14z"/>
<path style="fill:#353638; stroke:none;" d="M6 14L7 15L6 14z"/>
<path style="fill:#626365; stroke:none;" d="M9.66667 14.3333L10.3333 14.6667L9.66667 14.3333M38.6667 14.3333L39.3333 14.6667L38.6667 14.3333z"/>
<path style="fill:#a7a8a9; stroke:none;" d="M41 14L42 15L41 14M43 14L44 15L43 14z"/>
<path style="fill:#626365; stroke:none;" d="M2.33333 15.6667L2.66667 16.3333L2.33333 15.6667z"/>
<path style="fill:#353638; stroke:none;" d="M7.33333 15.6667L7.66667 16.3333L7.33333 15.6667z"/>
<path style="fill:#a7a8a9; stroke:none;" d="M8 15L9 16L8 15z"/>
<path style="fill:#16191b; stroke:none;" d="M9 15L8 20L9 20L9 15z"/>
<path style="fill:#a7a8a9; stroke:none;" d="M10 15L11 16L10 15M38 15L39 16L38 15M40 15L41 16L40 15z"/>
<path style="fill:#626365; stroke:none;" d="M42 15L43 16L42 15z"/>
<path style="fill:#a7a8a9; stroke:none;" d="M6 16L7 17L6 16z"/>
<path style="fill:#353638; stroke:none;" d="M9 16L10 17L9 16z"/>
<path style="fill:#a7a8a9; stroke:none;" d="M42 16L43 17L42 16z"/>
<path style="fill:#626365; stroke:none;" d="M46.3333 16.6667L46.6667 17.3333L46.3333 16.6667z"/>
<path style="fill:#353638; stroke:none;" d="M2.33333 17.6667L2.66667 18.3333L2.33333 17.6667z"/>
<path style="fill:#626365; stroke:none;" d="M7 17L8 18L7 17M9.33333 17.6667L9.66667 18.3333L9.33333 17.6667M39 17L40 18L39 17z"/>
<path style="fill:#16191b; stroke:none;" d="M40.3333 17.6667L40.6667 18.3333L40.3333 17.6667z"/>
<path style="fill:#626365; stroke:none;" d="M41 17L42 18L41 17z"/>
<path style="fill:#a7a8a9; stroke:none;" d="M7 18L7 21L8 21L7 18M39.3333 18.6667L39.6667 19.3333L39.3333 18.6667M41 18L41 21L42 21L41 18z"/>
<path style="fill:#353638; stroke:none;" d="M46 18L47 19L46 18z"/>
<path style="fill:#a7a8a9; stroke:none;" d="M3.33333 19.6667L3.66667 20.3333L3.33333 19.6667M9 19L10 20L9 19z"/>
<path style="fill:#353638; stroke:none;" d="M40 19L44 30L40 19M8.33333 20.6667L8.66667 21.3333L8.33333 20.6667z"/>
<path style="fill:#a7a8a9; stroke:none;" d="M45 20L46 21L45 20z"/>
<path style="fill:#626365; stroke:none;" d="M3 21L4 22L3 21M7 21L9 24L7 21M41 21L42 22L41 21M45.3333 21.6667L45.6667 22.3333L45.3333 21.6667z"/>
<path style="fill:#353638; stroke:none;" d="M3 22L4 23L3 22z"/>
<path style="fill:#626365; stroke:none;" d="M40 22L41 23L40 22z"/>
<path style="fill:#a7a8a9; stroke:none;" d="M4 23L5 24L4 23z"/>
<path style="fill:#353638; stroke:none;" d="M7.33333 23.6667L7.66667 24.3333L7.33333 23.6667z"/>
<path style="fill:#a7a8a9; stroke:none;" d="M40 23L40 26L41 26L40 23z"/>
<path style="fill:#353638; stroke:none;" d="M45 23L46 24L45 23z"/>
<path style="fill:#626365; stroke:none;" d="M4.33333 24.6667L4.66667 25.3333L4.33333 24.6667z"/>
<path style="fill:#a7a8a9; stroke:none;" d="M6 24L5 29L6 29L6 24M8.33333 24.6667L8.66667 25.3333L8.33333 24.6667M42.3333 24.6667L42.6667 25.3333L42.3333 24.6667M44 24L45 25L44 24z"/>
<path style="fill:#16191b; stroke:none;" d="M7 25L8 26L7 25z"/>
<path style="fill:#626365; stroke:none;" d="M44 25L45 26L44 25z"/>
<path style="fill:#353638; stroke:none;" d="M4 26L5 27L4 26M7 26L5 31L7 26z"/>
<path style="fill:#626365; stroke:none;" d="M42.3333 26.6667L42.6667 27.3333L42.3333 26.6667z"/>
<path style="fill:#353638; stroke:none;" d="M44 26L45 27L44 26z"/>
<path style="fill:#626365; stroke:none;" d="M6 27L7 28L6 27z"/>
<path style="fill:#a7a8a9; stroke:none;" d="M43.3333 27.6667L43.6667 28.3333L43.3333 27.6667z"/>
<path style="fill:#626365; stroke:none;" d="M41.3333 28.6667L41.6667 29.3333L41.3333 28.6667M5 29L6 30L5 29M7.33333 29.6667L7.66667 30.3333L7.33333 29.6667z"/>
<path style="fill:#a7a8a9; stroke:none;" d="M41 30L41 34L42 34L41 30M7 31L7 36L8 36L7 31z"/>
<path style="fill:#353638; stroke:none;" d="M6 33L6 38L7 38L6 33M42 34L42 38L43 38L42 34z"/>
<path style="fill:#a7a8a9; stroke:none;" d="M7 37L7 40L8 40L7 37M41.3333 38.6667L41.6667 39.3333L41.3333 38.6667z"/>
<path style="fill:#626365; stroke:none;" d="M7 40L8 41L7 40M41 40L42 41L41 40z"/>
<path style="fill:#353638; stroke:none;" d="M7 41L8 42L7 41z"/>
<path style="fill:#a7a8a9; stroke:none;" d="M8 41L9 42L8 41M40 41L41 42L40 41z"/>
<path style="fill:#353638; stroke:none;" d="M41 41L42 42L41 41z"/>
<path style="fill:#626365; stroke:none;" d="M8 42L9 43L8 42M40 42L41 43L40 42M9 43L10 44L9 43z"/>
<path style="fill:#a7a8a9; stroke:none;" d="M10 43L11 44L10 43M38 43L39 44L38 43z"/>
<path style="fill:#626365; stroke:none;" d="M39 43L40 44L39 43z"/>
<path style="fill:#353638; stroke:none;" d="M10 44L11 45L10 44z"/>
<path style="fill:#626365; stroke:none;" d="M11 44L12 45L11 44z"/>
<path style="fill:#a7a8a9; stroke:none;" d="M12.6667 44.3333L13.3333 44.6667L12.6667 44.3333M35.6667 44.3333L36.3333 44.6667L35.6667 44.3333z"/>
<path style="fill:#626365; stroke:none;" d="M37 44L38 45L37 44z"/>
<path style="fill:#353638; stroke:none;" d="M38 44L39 45L38 44M13 45L13 46L16 46L13 45z"/>
<path style="fill:#626365; stroke:none;" d="M16.6667 45.3333L17.3333 45.6667L16.6667 45.3333z"/>
<path style="fill:#a7a8a9; stroke:none;" d="M18 45L18 46L31 46L18 45z"/>
<path style="fill:#626365; stroke:none;" d="M31 45L31 46L34 46L31 45z"/>
<path style="fill:#353638; stroke:none;" d="M34.6667 45.3333L35.3333 45.6667L34.6667 45.3333z"/>
</svg>
